<svg width="24" height="24" viewBox="0 0 24 24" fill="none" xmlns="http://www.w3.org/2000/svg">
<g clip-path="url(#clip0_14_71)">
<path d="M22.3815 5.48899L22.383 5.48963C22.5657 5.56537 22.7218 5.69358 22.8316 5.85805C22.9415 6.02252 23 6.21586 23 6.41363V6.41388V16.9987C22.9987 18.0595 22.5768 19.0765 21.8267 19.8266C21.0766 20.5766 20.0596 20.9986 18.9988 20.9999H5.0012C3.9404 20.9986 2.92342 20.5766 2.17333 19.8266C1.42336 19.0766 1.00142 18.0598 1 16.9992V6.41409C1 6.41402 1 6.41395 1 6.41388C1.00008 6.2162 1.05875 6.02299 1.1686 5.85863C1.27848 5.69422 1.43465 5.56609 1.61735 5.49042C1.80005 5.41475 2.00108 5.39494 2.19503 5.43351C2.38894 5.47207 2.56706 5.56724 2.70689 5.70699C2.70693 5.70702 2.70696 5.70706 2.707 5.70709L5.29289 8.29299L6 9.00009L6.70711 8.29299L11.293 3.70709C11.293 3.70706 11.2931 3.70702 11.2931 3.70699C11.4806 3.51958 11.7349 3.41431 12 3.41431C12.2651 3.41431 12.5194 3.51958 12.7069 3.70699C12.7069 3.70702 12.707 3.70706 12.707 3.70709L17.2929 8.29299L18 9.00009L18.7071 8.29299L21.2931 5.70699L21.2948 5.70534C21.434 5.56548 21.6116 5.47023 21.8052 5.4317C21.9987 5.39317 22.1993 5.41311 22.3815 5.48899Z" fill="#FFB202" stroke="white" stroke-width="2"/>
</g>
<defs>
<clipPath id="clip0_14_71">
<rect width="24" height="24" fill="white"/>
</clipPath>
</defs>
</svg>
